<?xml version="1.0" standalone="no"?>
<!DOCTYPE svg PUBLIC "-//W3C//DTD SVG 20010904//EN"
 "http://www.w3.org/TR/2001/REC-SVG-20010904/DTD/svg10.dtd">
<svg version="1.0" xmlns="http://www.w3.org/2000/svg"
 width="1280.000000pt" height="853.000000pt" viewBox="0 0 1280.000000 853.000000"
 preserveAspectRatio="xMidYMid meet">
<metadata>
Created by potrace 1.15, written by Peter Selinger 2001-2017
</metadata>
<g transform="translate(0.000000,853.000000) scale(0.100000,-0.100000)"
fill="#000000" stroke="none">
<path d="M2219 6405 c-5 -11 -13 -76 -18 -145 -8 -108 -7 -130 7 -160 l17 -35
193 3 192 3 0 -56 0 -55 -214 0 -213 0 -7 -61 c-8 -78 -8 -232 0 -253 5 -13
24 -16 103 -16 53 0 147 -3 209 -7 l112 -6 0 -54 0 -53 -214 0 c-159 0 -216
-3 -223 -12 -16 -20 -25 -283 -11 -313 l11 -25 209 0 208 0 0 -68 0 -67 -180
3 c-99 3 -200 1 -224 -2 l-43 -7 -7 -152 c-10 -201 -28 -187 240 -187 l204 0
0 -51 0 -51 -220 3 c-120 2 -223 -1 -227 -5 -4 -4 -8 -83 -8 -174 l0 -167 218
-3 217 -2 0 -45 0 -45 -229 0 -229 0 -10 -27 c-6 -16 -16 -65 -23 -110 -8 -56
-16 -83 -24 -83 -8 0 -27 -11 -44 -25 -22 -19 -32 -38 -37 -71 -5 -37 -9 -44
-24 -39 -11 3 -29 -4 -46 -19 -26 -22 -29 -31 -32 -105 l-4 -81 -68 0 c-78 0
-82 -3 -110 -85 -21 -62 -26 -148 -10 -189 l10 -26 389 0 389 0 6 -82 c8 -112
23 -437 42 -888 l16 -375 -106 -196 -106 -195 0 -142 0 -142 150 0 151 0 196
396 197 397 -11 99 c-6 55 -14 102 -17 105 -3 3 -27 7 -53 10 -72 6 -90 11
-90 25 0 7 -4 87 -8 178 l-7 165 3552 3 3552 4 -6 -94 c-4 -51 -9 -130 -12
-174 l-6 -81 -71 -7 c-39 -4 -72 -8 -74 -10 -2 -2 -9 -59 -15 -128 l-10 -124
186 -372 186 -371 133 5 c72 3 137 7 143 9 7 2 12 47 13 121 1 65 4 121 7 125
2 5 -41 101 -97 216 l-101 208 17 310 c18 347 20 374 28 395 3 8 11 168 17
354 6 187 12 341 14 343 1 2 165 8 362 14 317 9 362 13 384 28 52 37 46 158
-11 217 -20 21 -43 34 -58 34 -46 0 -71 12 -77 35 -3 13 -22 30 -48 43 -37 18
-44 26 -50 60 -4 27 -18 52 -44 78 -31 31 -45 59 -71 142 l-32 102 -219 0
-220 0 0 48 0 47 204 -3 c265 -5 250 -15 241 176 -4 75 -12 143 -17 150 -8 9
-65 12 -224 12 l-214 0 0 56 0 56 211 -4 c194 -3 212 -2 224 15 10 14 12 51 8
160 -3 78 -10 147 -14 153 -6 7 -80 12 -216 13 -114 1 -209 3 -210 5 -2 1 -4
32 -5 67 l-3 64 211 -4 c206 -4 212 -3 223 17 13 25 3 290 -12 310 -6 7 -35
12 -76 12 -36 0 -130 3 -208 7 l-141 6 -4 49 -3 48 200 0 c263 0 250 -8 241
153 -3 65 -12 131 -19 146 l-12 26 -155 6 c-85 4 -179 7 -208 8 l-53 1 3 38 3
37 200 3 c174 2 202 4 213 19 13 19 15 102 5 231 -5 74 -9 85 -28 92 -12 5
-1038 13 -2281 19 -1242 6 -2527 16 -2854 21 -327 5 -813 12 -1080 15 -418 4
-1664 22 -1994 28 -100 2 -109 0 -117 -18z m1156 -355 c171 -6 710 -14 1200
-20 490 -5 1131 -14 1425 -19 294 -6 1288 -13 2208 -17 l1673 -7 -3 -34 -3
-33 -1114 0 c-612 0 -1117 2 -1121 5 -5 3 -755 10 -1667 16 -912 6 -1979 13
-2370 16 l-713 5 0 49 0 49 88 0 c48 -1 227 -5 397 -10z m2110 -440 c616 -5
1856 -13 2755 -20 1247 -8 1636 -14 1642 -23 4 -7 8 -30 8 -51 l0 -39 -732 6
c-403 4 -1981 10 -3505 14 l-2773 6 0 59 0 58 743 -1 c408 0 1246 -5 1862 -9z
m3300 -459 l1100 -6 0 -75 0 -75 -820 3 c-451 2 -1556 8 -2455 13 -899 5
-2109 9 -2687 9 l-1053 0 0 70 0 70 2408 -1 c1324 -1 2902 -5 3507 -8z m-355
-486 c338 -1 805 -3 1038 -4 l422 -1 0 -55 0 -55 -2102 0 c-2101 1 -4341 13
-4728 26 l-205 7 4 50 3 49 2477 -7 c1362 -4 2753 -8 3091 -10z m-4210 -445
c657 -6 2202 -9 3434 -9 l2239 1 1 -47 1 -48 -2550 6 c-1402 4 -2990 10 -3527
14 l-978 6 0 42 c0 23 3 45 8 49 4 5 45 5 92 2 47 -3 623 -11 1280 -16z m5714
-1002 c-2 -79 -7 -176 -10 -215 l-6 -72 -336 -4 c-715 -6 -6761 -2 -6768 6 -4
4 -10 84 -12 177 l-5 170 1394 0 c1435 0 2391 9 3714 35 900 17 1674 35 1730
39 22 1 100 3 172 4 l133 2 -6 -142z"/>
</g>
</svg>
